<svg version="1.1" xmlns="http://www.w3.org/2000/svg" xmlns:xlink="http://www.w3.org/1999/xlink" width="622.96103" height="639.86722" viewBox="-98.81781,115.84419,622.96103,639.86722"><defs><clipPath id="clip-1"><rect x="-120.19869" y="26.88686" transform="rotate(-180) scale(4.36064,-4.30858)" width="142.86" height="148.51" id="clip-1" fill="none" stroke="none"/></clipPath></defs><g id="document" fill="#ffffff" fill-rule="nonzero" stroke="#000000" stroke-width="0" stroke-linecap="butt" stroke-linejoin="miter" stroke-miterlimit="10" stroke-dasharray="" stroke-dashoffset="0" font-family="none" font-weight="none" font-size="none" text-anchor="none" style="mix-blend-mode: normal" visibility="hidden"><rect x="-138" y="57.85714" transform="scale(1,1.4)" width="700" height="500" id="Shape 1 1" vector-effect="non-scaling-stroke"/></g><g fill="none" fill-rule="nonzero" stroke="none" stroke-width="1" stroke-linecap="butt" stroke-linejoin="miter" stroke-miterlimit="10" stroke-dasharray="" stroke-dashoffset="0" font-family="none" font-weight="none" font-size="none" text-anchor="none" style="mix-blend-mode: normal"><g><g id="stage"><g id="layer1 1"><g clip-path="url(#clip-1)" id="Group 1"><path d="M19.79159,376.9873c0,0 2.61638,-66.39523 15.6983,-83.06944c0,0 2.31114,44.0337 -15.6983,83.06944z" id="Path 1" fill="#48837e" stroke-opacity="0" stroke="#000000"/><path d="M417.35115,582.89439c0,0 3.09605,-4.00698 10.50914,-14.43375c2.85793,-2.14121 6.31443,-3.35986 9.89865,-3.48995c6.97702,-0.77554 2.18032,-4.30858 14.60814,-5.25647c2.16609,0.32897 4.38097,-0.08137 6.27932,-1.16332c3.05245,-1.76652 3.96818,6.9799 1.00295,12.66723c-2.96524,5.68733 -10.46554,4.78252 -14.78257,3.74847c0,0 1.78786,3.96389 0.95934,5.98893c3.18595,4.03256 7.92414,6.57624 13.08192,7.02299c2.75765,1.14139 5.37608,2.58674 7.80555,4.30858l15.48027,5.21338l13.91044,2.36972c0,0 9.41898,-1.07715 11.03242,2.28355c1.61344,3.36069 0.6541,3.74847 0.6541,3.74847c0,0 15.08781,-0.6032 16.04716,5.42881c0.95934,6.03201 -1.78786,4.95487 -1.78786,4.95487c0,0 3.05245,6.24744 -4.70949,7.36767h-7.54391c-3.25736,2.2359 -6.69996,4.19609 -10.29111,5.85967c-4.85484,1.57297 -9.78899,2.89604 -14.78257,3.96389l-14.86978,0.38777c-14.56767,0.77007 -29.14067,-1.41471 -42.82149,-6.41979l-11.86094,-2.84366c1.43517,-13.85736 2.16286,-27.77735 2.18032,-41.70706z" id="Path 1" fill="#f8a574" stroke-opacity="0" stroke="#000000"/><path d="M455.33232,559.62805c0.82897,1.60664 0.80353,3.51369 -0.06801,5.09818c-0.87154,1.58449 -2.47726,2.64295 -4.29263,2.8296c-7.10784,1.63726 -8.45964,-1.16332 -8.45964,-1.16332c0,0 -3.27048,0.73246 -1.61344,3.44686c1.1205,1.7927 2.40499,3.48011 3.83736,5.04104c0,0 15.95994,5.60116 16.57043,-10.85762c0.13082,-0.08617 2.09311,-9.09111 -5.97408,-4.39475z" id="Path 1" fill="#ef9870" stroke-opacity="0" stroke="#000000"/><path d="M466.93163,597.45739c0,0 -0.39246,4.91178 1.52622,6.72139c1.91868,1.8096 3.13966,2.88675 3.13966,2.88675c0,0 -0.74131,-0.94789 6.06129,-1.72343c9.48725,-0.06487 18.96905,0.4676 28.38777,1.59417c-11.15125,-2.85191 -22.69905,-3.88521 -34.18742,-3.05909c-2.82972,-0.92494 -4.78932,-3.47799 -4.92752,-6.41979z" id="Path 1" fill="#ef9870" stroke-opacity="0" stroke="#000000"/><path d="M523.09667,609.73685c0,0 0,4.30858 -6.67178,3.40378c-10.35439,-0.03747 -20.70355,0.4659 -31.00415,1.508c0,0 -11.5557,-0.6032 -13.08192,-4.30858c0,0 -0.82852,5.12721 2.26753,6.03201c11.5488,-0.16307 23.07915,-0.96861 34.53627,-2.41281c0,0 12.77668,-0.38777 13.91044,2.15429c1.59884,-1.82605 1.61732,-4.52947 0.04361,-6.3767z" id="Path 1" fill="#ef9870" stroke-opacity="0" stroke="#000000"/><path d="M473.95226,618.26784v4.30858c4.84775,0.61671 9.76871,0.35389 14.52093,-0.77554c0,0 -11.16324,1.07715 -12.77668,-1.12023z" id="Path 1" fill="#ef9870" stroke-opacity="0" stroke="#000000"/><path d="M414.82198,619.68967c5.1789,-0.9465 10.52733,0.13514 14.91339,3.01601c5.66883,4.73944 36.89102,10.46985 42.77788,6.72139l1.87508,-2.49898c0,0 1.3954,7.32459 16.61404,2.49898c15.21863,-4.82561 15.6983,-6.0751 15.6983,-6.0751c0,0 2.39835,-3.70538 -0.43606,-4.91178c0,0 4.36064,1.46492 3.18327,5.4719c0,0 -5.14556,3.18835 -9.81144,5.55807c-4.59234,1.84737 -9.39535,3.13507 -14.3029,3.83464c0,0 -43.91165,3.48995 -58.17094,-5.90276l-11.86094,-2.84366z" id="Path 1" fill="#ef9870" stroke-opacity="0" stroke="#000000"/><path d="M521.43963,616.02738c0,0 0.47967,3.10218 -4.88392,3.27452l-8.72128,0.21543c1.03277,1.1346 1.66077,2.57235 1.78786,4.09315h7.54391c0,0 8.198,-0.9048 4.27343,-7.5831z" id="Path 1" fill="#ef9870" stroke-opacity="0" stroke="#000000"/><path d="M417.35115,582.89439l-8.93931,5.98893c-6.36653,4.95487 -31.353,-0.73246 -31.353,-0.73246c-59.52274,-17.49284 -72.34302,-19.99182 -84.55281,-20.6381c-9.89865,-0.56012 -30.52448,-6.6783 -32.09431,-27.91961c-1.56983,-21.2413 -2.7036,-47.39439 -2.7036,-47.39439l-20.10255,10.55602l-3.05245,19.00084c-3.53212,15.85558 -6.23572,34.46865 -7.89276,46.83428c-1.00295,7.66927 1.91868,22.92165 8.24161,24.34348c8.72128,1.93886 11.11963,4.69635 36.97823,12.02094c32.09431,9.04802 102.12619,10.38368 129.24937,17.57901c4.07098,1.0584 8.23056,1.75059 12.42782,2.06812h1.61344c3.2844,-6.37377 6.11125,-12.96779 8.45964,-19.7333c-1.69563,-7.42983 -3.79173,-14.76487 -6.27932,-21.97376z" id="Path 1" fill="#f8a574" stroke-opacity="0" stroke="#000000"/><path d="M425.02588,598.40528c1.49154,-0.92966 3.29982,-1.22485 5.01474,-0.81863c4.01846,1.48057 8.53,-0.14539 10.63996,-3.83464c3.70654,-7.32459 2.96524,-5.51498 2.96524,-5.51498l10.16029,6.50596c0,0 1.22098,7.5831 -11.51209,8.96185c-12.73307,1.37875 -0.56688,0 -0.56688,0c0,0 19.88452,12.92574 17.83502,21.54291c0,0 -26.64351,-26.58395 -34.53627,-26.92863z" id="Path 1" fill="#ef9870" stroke-opacity="0" stroke="#000000"/><path d="M59.99669,706.11981c0,0 0,1.46492 0,4.30858c0.34885,7.62619 1.17737,24.98977 2.18032,45.67096h179.39673c-0.7217,-17.17879 -2.58627,-34.29208 -5.58162,-51.22903v0c-4.01179,1.24949 -96.10851,33.95162 -175.99543,1.24949z" id="Path 1" fill="#0e5d8e" stroke-opacity="0" stroke="#000000"/><path d="M159.02683,255.2268c0,0 -7.93637,30.84944 -6.71539,43.08581l-6.1485,8.35865c0,0 -13.08192,43.94753 -15.26224,52.34926l55.99062,13.6582l15.30585,-43.08581l-39.24576,-54.33121z" id="Path 1" fill="#ed9569" stroke-opacity="0" stroke="#000000"/><path d="M223.5207,238.50951z" id="Path 1" fill="#464c50" stroke-opacity="0" stroke="#000000"/><path d="M223.5207,238.59568z" id="Path 1" fill="#464c50" stroke-opacity="0" stroke="#000000"/><path d="M223.5643,238.46642z" id="Path 1" fill="#464c50" stroke-opacity="0" stroke="#000000"/><path d="M220.1194,223.21404c3.29868,4.36538 4.55223,9.91547 3.44491,15.25238c0.34885,-1.76652 3.57572,-19.51787 -12.55864,-20.37959c-4.74288,-0.16311 -9.38667,1.36634 -13.08192,4.30858c-2.32389,1.86893 -4.49629,3.91456 -6.49735,6.11819c4.75564,-4.78796 10.81452,-8.1105 17.44256,-9.56505c4.29978,-1.48866 9.05617,0.33998 11.20685,4.30858z" id="Path 1" fill="#464c50" stroke-opacity="0" stroke="#000000"/><path d="M187.50181,176.85371c26.14219,-6.47427 53.54738,4.28061 68.06959,26.7132c5.11675,7.78087 7.7034,16.92151 7.41309,26.19617c-0.02174,0.3156 -0.02174,0.63229 0,0.94789c0.34885,4.30858 -6.1049,52.90938 -18.00944,74.84005c-0.93761,1.73799 -1.75351,3.53745 -2.44196,5.38573c-1.9685,5.61025 -4.22441,11.11798 -6.75899,16.50187c-2.79081,5.1703 -12.64586,15.16621 -51.23752,-6.0751l-2.65999,-1.37875c-15.04857,-7.03083 -23.71005,-22.92441 -21.36714,-39.20809c1.49179,-14.46237 -0.63454,-29.06541 -6.19211,-42.52569c-2.87403,-6.93833 -3.86605,-14.49755 -2.87802,-21.93068l0.26164,-1.85269c1.77159,-13.26879 9.68323,-24.9707 21.41074,-31.66807l2.18032,-1.16332c3.79681,-2.20507 7.91517,-3.81822 12.20979,-4.78252z" id="Path 1" fill="#f8a574" stroke-opacity="0" stroke="#000000"/><path d="M257.49008,263.49928c0,0 -10.02947,13.61512 -18.48911,-2.97292c-0.73892,-6.88313 4.28825,-13.0632 11.25045,-13.83055c12.77668,-2.41281 7.89276,13.31352 7.89276,13.31352z" id="Path 1" fill="#ffffff" stroke-opacity="0" stroke="#000000"/><ellipse cx="-69.14498" cy="44.18999" transform="rotate(-166.26951) scale(4.35766,-4.31153) skewX(0.31733)" rx="1.59" ry="1.98" id="Shape 1" fill="#464c50" stroke-opacity="0" stroke="#000000"/><path d="M239.52425,285.86081l-8.72128,-2.15429c-3.91635,-0.22476 -7.80541,0.7698 -11.11963,2.84366c0,0 13.08192,3.05909 16.52683,4.05007c-0.08721,0 5.62523,-1.2064 3.31409,-4.73944z" id="Path 1" fill="#ed9569" stroke-opacity="0" stroke="#000000"/><circle cx="-56.45869" cy="59.44686" transform="rotate(-180) scale(4.36064,-4.30858)" r="0.64" id="Shape 1" fill="#000000" stroke-opacity="0" stroke="#000000"/><circle cx="-55.94869" cy="60.01686" transform="rotate(-180) scale(4.36064,-4.30858)" r="0.36" id="Shape 1" fill="#ffffff" stroke-opacity="0" stroke="#000000"/><path d="M219.68333,255.70075c0,0 3.57572,-22.62005 11.5557,-27.57492c0,0 -13.08192,-15.46781 -45.43787,-6.76447c-0.40926,7.6527 0.26591,15.32436 2.00589,22.79239z" id="Path 1" fill="#ed9569" stroke-opacity="0" stroke="#000000"/><path d="M219.94497,254.322c0,0 0,9.17728 -19.27403,4.30858c-6.51556,-2.34273 -11.42131,-7.73925 -13.08192,-14.39066c0,0 11.03242,-13.39969 23.28582,-9.00493c12.2534,4.39475 9.07013,19.08701 9.07013,19.08701z" id="Path 1" fill="#ffffff" stroke-opacity="0" stroke="#000000"/><path d="M232.63443,228.08274c0.86884,-0.91662 1.09264,-2.2604 0.56688,-3.40378c-1.09016,-2.32663 -4.66588,-6.54904 -16.65765,-8.87568c-10.52031,-1.86058 -21.36652,0.11436 -30.52448,5.55807c0,0 27.34121,-7.79853 41.38247,5.94584c-0.21803,0 3.13966,2.80058 5.23277,0.77554z" id="Path 1" fill="#333333" stroke-opacity="0" stroke="#000000"/><path d="M249.4229,233.51155c-1.31028,6.54685 -4.18033,12.69104 -8.37243,17.9237c0,0 13.82323,-12.92574 17.87862,0.68937c0.83992,-1.76772 1.53972,-3.59718 2.09311,-5.4719c0.26164,-1.508 1.52622,-11.59008 1.52622,-11.59008c-1.60919,-1.32453 -3.66437,-2.00141 -5.75604,-1.89578z" id="Path 1" fill="#ed9569" stroke-opacity="0" stroke="#000000"/><path d="M187.80705,244.15375c0,0 15.74191,18.56998 31.353,12.53797c0,0 -2.22393,6.59213 -18.53272,2.15429c0,0 -11.86094,-4.22241 -12.82028,-14.69226z" id="Path 1" fill="#ed9569" stroke-opacity="0" stroke="#000000"/><path d="M239.00097,260.56944c0,0 8.41604,10.08208 18.48911,2.92984c0,0 -6.97702,9.69431 -14.08487,3.36069c-1.91118,-1.7575 -3.4138,-3.90368 -4.40425,-6.29053z" id="Path 1" fill="#ed9569" stroke-opacity="0" stroke="#000000"/><path d="M241.2685,251.43525c0,0 15.17503,-12.40871 17.92223,1.98195c0.47283,-3.3656 -1.65457,-6.55549 -4.97113,-7.45385c-6.01768,-2.24046 -12.9511,5.4719 -12.9511,5.4719z" id="Path 1" fill="#000000" stroke-opacity="0" stroke="#000000"/><path d="M246.98094,233.89933c0,0 -9.89865,16.07101 -7.97997,26.62703c-0.36856,-4.62979 1.56751,-9.14695 5.18916,-12.10711l8.45964,-15.38163z" id="Path 1" fill="#ed9569" stroke-opacity="0" stroke="#000000"/><path d="M248.85602,235.23499c-1.17536,0.47368 -2.52472,0.02956 -3.1778,-1.04592c-0.65309,-1.07548 -0.4147,-2.46087 0.56142,-3.26266c0.40531,-0.35544 0.84327,-0.67277 1.30819,-0.94789c4.66588,-2.88675 15.52388,-0.47394 15.52388,-0.47394l-0.30524,5.42881c-4.56609,-1.25209 -9.40434,-1.14719 -13.91044,0.3016z" id="Path 1" fill="#333333" stroke-opacity="0" stroke="#000000"/><circle cx="-46.36869" cy="56.77686" transform="rotate(-180) scale(4.36064,-4.30858)" r="2.15" id="Shape 1" fill="#464c50" stroke-opacity="0" stroke="#000000"/><circle cx="-46.39869" cy="56.84686" transform="rotate(-180) scale(4.36064,-4.30858)" r="0.75" id="Shape 1" fill="#000000" stroke-opacity="0" stroke="#000000"/><circle cx="-45.65869" cy="57.30686" transform="rotate(-180) scale(4.36064,-4.30858)" r="0.36" id="Shape 1" fill="#ffffff" stroke-opacity="0" stroke="#000000"/><path d="M79.96842,440.06493l-4.14261,28.00578" id="Path 1" fill="none" stroke-opacity="0" stroke="#000000"/><path d="M239.48064,531.32068c0,0 -6.32293,40.93152 0.26164,47.39439c6.58457,6.46287 46.3536,-0.38777 93.18688,25.07594c27.66013,8.04447 56.10482,13.17155 84.85806,15.29546l-2.61638,5.4719c-6.27111,-0.37603 -12.47624,-1.475 -18.48911,-3.27452c-10.59636,-3.01601 -68.68008,-8.01396 -68.68008,-8.01396c-30.54447,-1.71395 -60.61052,-8.27512 -89.04427,-19.4317c0,0 -6.1049,-0.99097 -7.15145,-3.10218c0.17443,0 2.79081,-48.85931 7.67473,-59.41533z" id="Path 1" fill="#ef9870" stroke-opacity="0" stroke="#000000"/><path d="M264.51071,552.56198c-4.8286,5.91945 -11.80835,9.73877 -19.44845,10.6422c0,0 14.34651,0.9048 22.5009,-6.54904z" id="Path 1" fill="#ef9870" stroke-opacity="0" stroke="#000000"/><path d="M229.32035,305.42177c0,0 -14.56454,-4.73944 -29.08547,-11.28848c0,-0.21543 8.32882,24.77434 29.08547,11.28848z" id="Path 1" fill="#ffffff" stroke-opacity="0" stroke="#000000"/><path d="M139.97083,148.97719c0,0 2.44196,16.80347 15.04421,25.07594c0,0 -27.07958,-5.7735 -45.08902,5.51498c0,0 7.19506,-12.71031 36.58577,-9.95282c0,0 -8.76489,-11.20231 -6.54096,-20.6381z" id="Path 1" fill="#000000" stroke-opacity="0" stroke="#000000" opacity="0.1"/><path d="M168.75106,150.74371c-2.82468,-1.93182 -5.00913,-4.64476 -6.27932,-7.79853c-1.16031,-2.68168 -2.62311,-5.22547 -4.36064,-7.5831c0,0 5.97408,7.66927 9.46259,7.49693c0.82741,4.81548 5.04249,8.3437 9.98587,8.35865c0,0 2.13671,0 3.48851,-2.97292l-0.95934,-3.70538c0,0 1.17737,2.15429 5.36359,0.77554c1.84192,-1.05307 2.79153,-3.1555 2.35475,-5.21338c0,0 -1.87508,-0.34469 -4.88392,-6.6783c-3.00884,-6.33361 -18.14026,-14.8646 -18.14026,-14.8646l-26.64351,-1.89578c-3.29985,-1.19055 -6.94565,-1.01976 -10.11669,0.47394c-11.84949,6.51433 -23.02276,14.16287 -33.3589,22.83548c-11.16324,10.34059 -85.07609,31.8835 -110.62944,44.0337c-20.29562,10.35403 -39.96609,21.86292 -58.91225,34.46865c0,0 -10.2475,5.7735 -16.83207,10.34059c-3.1459,2.18673 -5.45106,5.36023 -6.54096,9.00493c-0.22062,0.60767 -0.40983,1.22603 -0.56688,1.85269c0,6.46287 8.72128,13.22734 13.86684,17.23432c7.90816,6.50985 15.33983,13.56484 22.23926,21.11205c39.24576,39.68203 66.71779,65.23192 93.79737,83.75882c0,0 23.8527,-41.49164 3.09605,-66.56758l-51.15031,-47.39439c0,0 59.9588,-40.50066 91.22459,-61.78505c0,0 21.8032,-15.55398 34.88512,-10.16825c13.08192,5.38573 18.05305,-3.23144 24.20155,-4.91178c3.85362,-1.00511 7.79652,-1.63998 11.77373,-1.89578c3.34387,-5.6372 7.24383,-10.93381 11.64291,-15.81249c-4.54589,-0.93565 -9.2681,-0.56179 -13.6052,1.07715c0,0 -9.37538,2.97292 -8.72128,-5.42881l0.61049,-5.90276l10.46554,-3.31761c1.71492,2.46797 4.37821,4.13406 7.36948,4.61018c0,0 8.41604,18.05295 15.87273,6.46287z" id="Path 1" fill="#f8a574" stroke-opacity="0" stroke="#000000"/><path d="M145.46524,139.71374c-1.39467,-1.03584 -2.29417,-2.59506 -2.48556,-4.30858c0,0 -4.099,6.41979 -10.55275,-5.38573c0,0 3.31409,8.87568 -0.91573,9.65122c-4.22982,0.77554 -10.29111,-6.16127 -10.29111,-6.16127c1.70627,3.16531 4.05114,5.95143 6.88981,8.1863l-14.39011,25.85149c-6.59545,1.56556 -13.53242,-0.51046 -18.14026,-5.42881l2.7472,13.18426c4.30581,-0.99838 8.83003,-0.46439 12.77668,1.508c0,0 6.71539,4.30858 19.71009,-4.73944c4.37667,-1.98338 9.13907,-2.99801 13.95405,-2.97292c3.20681,-5.72465 7.11743,-11.03574 11.64291,-15.81249c-4.83634,-1.02246 -9.87363,-0.55633 -14.43372,1.33566c-8.72128,3.18835 -8.72128,-5.7735 -6.97702,-11.59008z" id="Path 1" fill="#ef9870" stroke-opacity="0" stroke="#000000"/><path d="M142.41279,123.34114c0,0 14.82618,2.15429 17.09371,2.36972c2.26753,0.21543 8.06718,9.22036 10.98881,10.25442c0,0 3.79376,15.72632 10.59636,12.27946c0,0 -0.91573,4.95487 -8.72128,1.72343c-2.52789,-1.6176 -4.27659,-4.18599 -4.84031,-7.10916c0,0 -3.44491,0.6032 -9.46259,-7.49693l-7.28227,-7.8847z" id="Path 1" fill="#ef9870" stroke-opacity="0" stroke="#000000"/><path d="M153.13996,129.93327c1.41459,0.84519 3.23534,0.59333 4.36064,-0.6032c0,0 3.88097,11.33157 11.03242,9.65122c0,0 4.88392,15.12312 12.42782,9.26345c0,0 -1.3518,4.30858 -7.10784,2.28355c-3.36299,-1.24002 -5.79366,-4.16805 -6.36653,-7.66927c0,0 -3.44491,0.51703 -9.46259,-7.49693z" id="Path 1" fill="#e88d69" stroke-opacity="0" stroke="#000000"/><path d="M167.74811,152.16554c-4.71,-0.44353 -8.65105,-3.71998 -9.89865,-8.22939c0,0 -12.68946,-5.51498 -13.08192,-10.38368c0,0 -7.19506,3.70538 -11.64291,-5.1703c-4.44785,-8.87568 -0.26164,7.79853 -1.3954,7.5831c-1.13377,-0.21543 -3.13966,3.74847 -9.5062,-2.58515c-6.36653,-6.33361 1.3954,3.87772 1.3954,3.87772c0,0 5.4508,6.41979 21.8032,1.89578c1.48712,2.85649 4.31515,4.7947 7.54391,5.1703c0,0 7.76194,16.15718 14.78257,7.84162z" id="Path 1" fill="#e88d69" stroke-opacity="0" stroke="#000000"/><path d="M164.43402,123.51348c4.30341,3.4278 8.86637,6.52468 13.6488,9.26345c0,0 2.83442,10.6422 9.24456,10.72837c-0.69492,1.4302 -2.12908,2.36735 -3.73307,2.43939c-1.60399,0.07204 -3.11828,-0.7327 -3.94166,-2.0947l-2.79081,-7.45385z" id="Path 1" fill="#ef9870" stroke-opacity="0" stroke="#000000"/><path d="M95.57952,161.98911c-2.30779,8.11457 -8.79714,14.41166 -17.0501,16.54495c-14.957,4.91178 -98.02719,63.29306 -106.09437,65.74895v0l16.43961,8.96185l-5.84326,-5.38573c0,0 86.42789,-60.32013 115.29532,-72.68576z" id="Path 1" fill="#ef9870" stroke-opacity="0" stroke="#000000"/><path d="M75.82582,468.07071l-7.84915,147.5689c0,0 -5.23277,65.79203 -13.08192,92.37598c0,0 105.26585,42.69804 181.2282,-3.53304c0,0 -12.03537,-101.89794 2.0495,-166.35431c14.08487,-64.45637 5.14556,-108.18847 5.14556,-108.18847c0,0 4.70949,51.70297 -0.26164,80.01035l17.44256,-9.26345c0,0 2.0495,-90.4802 -17.44256,-106.46504c-19.49206,-15.98484 -52.98178,-31.53881 -52.98178,-31.53881c0,0 -21.01829,21.19822 -55.81619,-19.08701l-20.01534,3.31761l-79.14562,-52.99555c0,0 3.13966,35.45962 -15.6983,83.06944l56.42668,45.49862z" id="Path 1" fill="#299e94" stroke-opacity="0" stroke="#000000"/><path d="M243.318,429.93976c4.65999,26.47909 4.57143,53.56156 -0.26164,80.01035l4.97113,-2.58515c0,0 3.31409,-65.275 -4.70949,-77.4252z" id="Path 1" fill="#000000" stroke-opacity="0" stroke="#000000" opacity="0.1"/><path d="M79.96842,440.06493c0,0 8.72128,-40.50066 13.6052,-57.13178c0,0 -12.2534,280.05777 -38.8097,325.08244c0,0 13.51798,-98.27873 25.2045,-267.95066z" id="Path 1" fill="#48837e" stroke-opacity="0" stroke="#000000"/><path d="M190.46704,362.68281l5.31998,2.54206c-5.43976,7.83115 -14.6526,12.25161 -24.24516,11.63317c-15.78552,-1.46492 -35.88807,-19.1301 -42.69067,-32.27127l5.79965,-0.99097c0,0 13.56159,18.39764 30.52448,23.00782c16.96289,4.61018 25.29171,-3.92081 25.29171,-3.92081z" id="Path 1" fill="#48837e" stroke-opacity="0" stroke="#000000"/><g id="Group 1" fill="#000000" stroke-opacity="0" stroke="#000000" opacity="0.1"><path d="M121.91778,458.59183v-0.47394c-0.02015,-0.37314 -0.02015,-0.74709 0,-1.12023c0,-0.86172 0,-1.8096 0,-2.71441c0,-1.59417 0,-3.23144 0.39246,-4.8687c0.22934,-1.49091 1.4475,-2.64144 2.96524,-2.80058c1.74426,0 3.48851,0 5.18916,0c1.70065,0 2.48556,0 3.66294,0h2.35475c2.18032,0 4.36064,0.3016 6.49735,0.51703c1.51649,0.21213 2.68832,1.42341 2.83442,2.92984c0,1.68035 0,3.40378 0,5.04104v3.70538c0,0.77554 0,1.55109 0,2.32663v0.3016c0,1.29257 0,2.58515 -0.30524,3.87772c-0.30524,1.29257 0,1.55109 0,2.32663c-0.2147,1.49839 -1.44061,2.65622 -2.96524,2.80058c-2.09311,0 -4.36064,0 -6.23572,0h-5.23277c-2.0495,0 -4.36064,-0.25851 -6.23572,-0.51703c-1.50718,-0.21549 -2.66437,-1.43033 -2.79081,-2.92984v-2.15429c0.02455,-0.22915 0.02455,-0.46022 0,-0.68937v-0.56012c0,-0.51703 0,-1.03406 0,-1.59417v-1.46492c-0.17443,-0.64629 -0.17443,-1.29257 -0.13082,-1.93886zM123.05155,461.78018v1.508c0,0 0,0.34469 0,0.51703v0.64629v2.06812c0.12291,1.18349 1.03511,2.13781 2.22393,2.32663c1.96229,0 3.92458,0.38777 5.88686,0.47394h4.88392c1.96229,0 3.92458,0 5.88686,0c1.20474,-0.14028 2.16743,-1.05625 2.35475,-2.24046c0,-0.73246 0,-1.46492 0,-2.15429c0,-0.68937 0,-2.41281 0.26164,-3.66229v-0.25851c0,-0.73246 0,-1.46492 0,-2.19738c0,-0.73246 0,-2.24046 0,-3.31761v0c0,-1.59417 0,-3.18835 0,-4.73944c-0.13785,-1.2005 -1.06216,-2.16647 -2.26753,-2.36972c-2.00589,-0.21543 -4.0554,-0.38777 -6.1049,-0.47394h-5.66883c-1.65704,0 -3.27048,0 -4.88392,0.21543c-1.18492,0.14878 -2.13676,1.03701 -2.35475,2.19738c0,1.55109 -0.30524,3.05909 -0.39246,4.61018v2.54206v1.46492c0,0.6032 0,1.2064 0,1.8096c0,0.6032 0.08721,0.6032 0.08721,1.03406z" id="CompoundPath 1"/></g><path d="M219.98858,254.23583c0,0 4.36064,-19.64713 -12.47143,-20.50885c-4.74919,-0.20697 -9.40826,1.32751 -13.08192,4.30858c-2.35076,1.85381 -4.53885,3.90048 -6.54096,6.11819c0,0 13.6052,-13.70129 24.46319,-8.61716c10.85799,5.08413 7.63112,18.69924 7.63112,18.69924z" id="Path 1" fill="#000000" stroke-opacity="0" stroke="#000000"/><path d="M260.06286,210.63299c0,0 13.99765,0.6032 11.46848,-11.76243c0,0 0.30524,-4.65327 -5.79965,-6.16127c-2.72268,1.01143 -5.74434,0.88703 -8.37243,-0.34469c0,0 12.38422,5.34264 21.32353,-9.39271c8.93931,-14.73535 -38.94052,-40.75918 -58.04012,-32.05584c0,0 22.76254,-7.54002 12.38422,-16.76038c-10.37832,-9.22036 -57.29881,10.29751 -72.8663,28.22121c0,0 -0.61049,-22.23228 -13.08192,-20.55193c-12.47143,1.68035 -6.06129,21.97376 -0.47967,27.79035c0,0 -45.26344,-5.21338 -39.24576,25.85149c0,0 9.41898,14.51992 26.16384,1.68035c-5.42279,4.76882 -13.04485,6.2387 -19.88452,3.83464c0,0 -20.75665,10.77145 -3.09605,20.37959l7.41309,1.85269c0,0 -3.53212,6.59213 4.36064,21.84451c7.89276,15.25238 24.02713,43.81827 23.72188,61.56962v0c5.06364,-2.50659 8.50689,-7.3668 9.15734,-12.92574l4.36064,-36.19208c0,0 4.7967,9.60814 4.84031,-7.10916c0.04361,-16.71729 -2.26753,-9.09111 -1.22098,-23.74028c0.85793,-4.16232 -0.26753,-8.48332 -3.05245,-11.71934c0,0 8.28522,-10.59911 16.00355,-9.82356c7.71833,0.77554 9.76783,-17.0189 0,-23.9988c0.13082,-0.08617 49.7549,-20.55193 83.94232,29.51378z" id="Path 1" fill="#333333" stroke-opacity="0" stroke="#000000"/><path d="M133.69151,197.14713c0,0 -5.93047,9.47888 -19.88452,3.83464c-2.84664,1.28354 -5.35402,3.20061 -7.32588,5.60116c0,0 22.5009,5.68733 27.21039,-9.43579z" id="Path 1" fill="#000000" stroke-opacity="0" stroke="#000000" opacity="0.1"/><path d="M226.61675,148.41708c-9.08044,5.60504 -19.40943,8.93297 -30.08842,9.69431c0,0 44.47853,-7.79853 56.25226,-3.48995c0,0 -6.8026,-6.03201 -26.16384,-6.20436z" id="Path 1" fill="#000000" stroke-opacity="0" stroke="#000000" opacity="0.1"/><path d="M158.41634,274.31382c0,0 -21.41074,13.3566 -27.60285,-11.59008c-6.19211,-24.94668 15.39306,-20.76736 15.39306,-20.76736c0,0 12.51504,0.6032 13.69241,15.72632c1.17737,15.12312 1.04655,17.96678 1.04655,17.96678z" id="Path 1" fill="#ed9569" stroke-opacity="0" stroke="#000000"/><path d="M154.7534,254.19274c-1.56683,-5.29422 -7.02206,-8.47928 -12.47143,-7.2815c-3.15943,0.29781 -6.00518,2.01347 -7.71833,4.65327c-0.97828,1.60699 -1.43483,3.47153 -1.30819,5.34264c0,0 4.66588,-11.41774 13.08192,-8.27248c3.2299,1.13153 6.12273,3.042 8.41604,5.55807z" id="Path 1" fill="#000000" stroke-opacity="0" stroke="#000000" opacity="0.1"/><path d="M149.78227,250.18576c0,0 -9.63701,2.06812 -8.98292,8.61716c0,0 5.49441,-7.36767 10.2039,-7.79853z" id="Path 1" fill="#000000" stroke-opacity="0" stroke="#000000" opacity="0.1"/><path d="M182.7051,195.16518c0,0 -1.96229,-16.45878 14.25929,-12.92574c16.22158,3.53304 41.51329,1.89578 63.09846,28.47972c0,0 -15.82912,-33.95162 -41.33887,-36.57985c0,0 -33.14086,-7.62619 -42.47263,6.80756c4.09137,3.62302 6.43662,8.78987 6.45375,14.21832z" id="Path 1" fill="#333333" stroke-opacity="0" stroke="#000000"/><path d="M279.72935,180.12823c0,0 -5.97408,11.02997 -27.82088,11.89168c0,0 21.71599,6.46287 27.82088,-11.89168z" id="Path 1" fill="#000000" stroke-opacity="0" stroke="#000000" opacity="0.1"/><path d="M34.1817,295.08118c0,0 -8.06718,49.97954 -42.34182,35.37345l34.49266,27.87652c6.17826,-20.02964 9.35165,-40.84593 9.41898,-61.78505z" id="Path 1" fill="#ef9870" stroke-opacity="0" stroke="#000000"/></g></g></g></g></g></svg>