<svg version="1.1" xmlns="http://www.w3.org/2000/svg" xmlns:xlink="http://www.w3.org/1999/xlink" width="631.55" height="941.67" viewBox="-103.61814,-39.65852,631.55,941.67"><defs><clipPath id="clip-1"><rect x="-527.93186" y="-39.65852" transform="rotate(-180) scale(1,-1)" width="631.55" height="941.67" id="clip-1" fill="none" stroke="none" stroke-width="1"/></clipPath><radialGradient cx="-202.42417" cy="126.32748" r="13.99" gradientUnits="userSpaceOnUse" id="color-1"><stop offset="0" stop-color="#36344a"/><stop offset="0.34" stop-color="#38364c"/><stop offset="0.51" stop-color="#403e54"/><stop offset="0.64" stop-color="#4d4b60"/><stop offset="0.75" stop-color="#605d72"/><stop offset="0.85" stop-color="#78758a"/><stop offset="0.94" stop-color="#9592a6"/><stop offset="1" stop-color="#aeaabe"/></radialGradient><radialGradient cx="6236.66467" cy="4232.31122" r="256.86623" gradientUnits="userSpaceOnUse" id="color-2"><stop offset="0" stop-color="#36344a"/><stop offset="0.34" stop-color="#38364c"/><stop offset="0.51" stop-color="#403e54"/><stop offset="0.64" stop-color="#4d4b60"/><stop offset="0.75" stop-color="#605d72"/><stop offset="0.85" stop-color="#78758a"/><stop offset="0.94" stop-color="#9592a6"/><stop offset="1" stop-color="#aeaabe"/></radialGradient></defs><g id="document" fill="#ffffff" fill-rule="nonzero" stroke="#000000" stroke-width="0" stroke-linecap="butt" stroke-linejoin="miter" stroke-miterlimit="10" stroke-dasharray="" stroke-dashoffset="0" font-family="none" font-weight="none" font-size="none" text-anchor="none" style="mix-blend-mode: normal" visibility="hidden"><rect x="-138" y="57.85714" transform="scale(1,1.4)" width="700" height="500" id="Shape 1 1" vector-effect="non-scaling-stroke"/></g><g fill="none" fill-rule="nonzero" stroke="none" stroke-width="none" stroke-linecap="butt" stroke-linejoin="miter" stroke-miterlimit="10" stroke-dasharray="" stroke-dashoffset="0" font-family="none" font-weight="none" font-size="none" text-anchor="none" style="mix-blend-mode: normal"><g><g id="stage"><g id="layer1 1"><g clip-path="url(#clip-1)" id="Group 1"><path d="M400.09186,520.02148l-35.94,23.59l-11.4,-34.46l-27.7,13.91l-35.54,13c0,0 39.42,79.62 53.31,91.28c13.89,11.66 63.19,-34 63.19,-34l39.34,-75.36z" id="Path 1" fill="#f8a574" stroke="none" stroke-width="1"/><path d="M375.05186,528.66148c0,0 -6.86,10.33 -15.18,30c0,0 -1.73,-8.42 13.49,-35.14z" id="Path 1" fill="#ed9469" stroke="none" stroke-width="1"/><path d="M4.19186,836.61148l-10.42,65.4h307.24v-68.74c0,0 -266.29,-30.93 -296.82,3.34z" id="Path 1" fill="#166090" stroke="none" stroke-width="1"/><path d="M167.19186,841.01148c-0.08,0 0,56.44 0,56.44l-2.47,-56.22z" id="Path 1" fill="#10587d" stroke="none" stroke-width="1"/><path d="M178.84186,900.80148c0,0 20.27,2.72 19.67,-15.5c-0.49001,-12.0463 -1.68539,-24.05354 -3.58,-35.96c0,0 5.57,29 5,38.66c-0.57,9.66 -7.78,13.92 -21.09,12.8z" id="Path 1" fill="#10587d" stroke="none" stroke-width="1"/><path d="M301.01186,833.27148c0,0 -99.92,86.17 -297.32,11.22l0.76,-13.35z" id="Path 1" fill="#10587d" stroke="none" stroke-width="1"/><path d="M116.56186,271.62148l-1.55,-109.49l109.67,73.74l-2.73,71.39l-45.41,43.63l-48.48,-63.8z" id="Path 1" fill="#f2966a" stroke="none" stroke-width="1"/><path d="M222.47186,293.64148c0,0 -42.64,37.86 -105.91,-22l-74,14.36c-32,6.22 -61,22 -80.57,45.45c-9.28518,11.052 -16.48847,23.69672 -21.26,37.32c-20.63,59 -43.2,116.31 -43.2,116.31c0,0 86,1.85 116.38,35.87l14.3,-57.23l-10.72,223.09c0,0 -12.24,104.14 -23.74,146c0,0 185.63,74.73 312.4,-2.56c0,0 -5.89,-174.09 13,-275c18.89,-100.91 6.58,-160.61 6.58,-160.61c0,0 12.46,79.98 6.2,124.03l40.76,-7.56c0,0 -15.28,-148.44 -49.76,-172c-34.48,-23.56 -100.46,-45.47 -100.46,-45.47z" id="Path 1" fill="#299e94" stroke="none" stroke-width="1"/><path d="M123.76186,175.12148c0,0 6.75,32 9.56,37.39c2.81,5.39 23.29,33.5 61.57,49.32c0,0 8.37,2.32 11,10.22c0,0 2.91,-6.67 16.11,-13.28c-0.07,0 -81.58,-36.37 -98.24,-83.65z" id="Path 1" fill="#e28059" stroke="none" stroke-width="1"/><path d="M324.74186,520.15148c0,0 9.76,-53.11 -5.58,-149.81c0,0 24.79,100.82 26.43,146z" id="Path 1" fill="#3f7c77" stroke="none" stroke-width="1"/><path d="M59.62186,379.24148c5.24085,-11.42778 5.24085,-24.57222 0,-36c0,0 14.55,19.14 0.39,49c-14.16,29.86 -20.49,172.84 -20.49,172.84l-15.83,-7l2.1,-84.11c0,0 12.14,-73.84 9.86,-95.03c0,0 13.25,22.25 9.3,45.73c-0.02,0 9.57,-28.59 14.67,-45.43z" id="Path 1" fill="#3f7c77" stroke="none" stroke-width="1"/><path d="M19.39186,647.61148c0,0 -9.28,132.6 -25.62,185.17c0,0 106.77,33.29 162.58,31.19c0,0 -126.84,-22.52 -139.61,-40.38c-12.77,-17.86 19,-217.54 19,-217.54l-14.67,7.34z" id="Path 1" fill="#3f7c77" stroke="none" stroke-width="1"/><path d="M51.25186,429.05148c0,0 26.8,-61.81 53.57,-64.87c0,0 -32.47,1.8 -49.81,44.29l-10.08,33.3z" id="Path 1" fill="#3f7c77" stroke="none" stroke-width="1"/><path d="M109.93186,399.18148h7.12v-2.47c0,-2.76142 2.23858,-5 5,-5h10.11c2.76142,0 5,2.23858 5,5v2.47h7.11c2.61231,0 4.73,2.11769 4.73,4.73v19.5c0,2.61231 -2.11769,4.73 -4.73,4.73h-34.34c-1.25356,0 -2.45562,-0.49865 -3.34108,-1.38599c-0.88546,-0.88734 -1.38157,-2.09046 -1.37892,-3.34401v-19.5c-0.00266,-1.25355 0.49346,-2.45667 1.37892,-3.34401c0.88546,-0.88734 2.08753,-1.38599 3.34108,-1.38599zM133.30186,396.71148c0.00267,-0.32264 -0.12364,-0.63298 -0.35085,-0.86207c-0.22721,-0.22909 -0.5365,-0.35794 -0.85915,-0.35793h-10.06c-0.32265,-0.00001 -0.63195,0.12884 -0.85915,0.35793c-0.22721,0.22909 -0.35351,0.53943 -0.35085,0.86207v2.38h12.51zM109.03186,422.55148c0.00546,0.99184 0.80816,1.79454 1.8,1.8h32.54c0.99574,0.00002 1.8045,-0.80427 1.81,-1.8v-17.74c-0.0055,-0.99573 -0.81426,-1.80002 -1.81,-1.8h-32.55c-0.99184,0.00546 -1.79454,0.80816 -1.8,1.8v17.74z" id="CompoundPath 1" fill="#299e94" stroke="none" stroke-width="1"/><path d="M235.55186,298.25148c0,0 -15.39,23.82 -49.33,21.94c-33.94,-1.88 -74.25,-33.07 -82,-46.18l4,-0.78c0,0 17.3,25.61 60.43,40c0,0 36.28,14.88 63.78,-16.09z" id="Path 1" fill="#3f7c77" stroke="none" stroke-width="1"/><path d="M164.40186,884.57148c0,0 -91.23,3.14 -131.35,-13.83c0,0 50.69,24.75 127.39,18.23c0,0 -47.7,15.4 -109.77,-0.86c0,0 61.73,18.84 116.24,3.05v-6.51z" id="Path 1" fill="#10587d" stroke="none" stroke-width="1"/><path d="M301.01186,857.70148c3.39483,3.66844 3.39483,9.33156 0,13c-5.83,7.07 -41.34,20.85 -94.15,17.45c0,0.04 81.13,-4.05 94.15,-30.45z" id="Path 1" fill="#10587d" stroke="none" stroke-width="1"/><path d="M300.64186,873.21148c2.44666,2.63265 2.44666,6.70735 0,9.34c-4.18,5.06 -29.6,14.92 -67.41,12.48c0,0 58.08,-2.92 67.41,-21.82z" id="Path 1" fill="#10587d" stroke="none" stroke-width="1"/><path d="M13.93186,520.93148c0,0 -111.92,-26.32 -116.38,-35.87c0,0 82.08,-6.6 116.38,35.87z" id="Path 1" fill="#3f7c77" stroke="none" stroke-width="1"/><path d="M251.73186,40.48148c0,0 37,30.29 33.08,64.25c-3.92,33.96 -8.57,51 -8.94,58.7c-0.37,7.7 -8.3,40.86 -17,57.07c-8.7,16.21 -30.62,50.6 -57.2,45.8c-26.58,-4.8 -37.55,-12.96 -50.74,-24.61c-13.19,-11.65 -29.28,-26.92 -25.74,-53.17l-4,-9.8c0,0 -35.12,34.21 -43.65,-35.83c0,0 -2.56,-28.69 32.88,-20.28c7.67162,6.81842 12.8689,15.98574 14.78,26.07c0,0 -12.27,-17.34 -13.67,-43.05c-1.4,-25.71 23.84,-57.14 23.84,-57.14c0,0 22.74,7.42 13.74,-22c0,0.02 48.77,-20.32 102.62,13.99z" id="Path 1" fill="#f8a574" stroke="none" stroke-width="1"/><path d="M106.64186,140.99148c0,0 -11.71,-13.27 -15.24,-14.65c-3.53,-1.38 -9,11.73 -9.38,28.9c0.18557,3.89157 1.07671,7.71704 2.63,11.29c2.84,6.72 15.15,15.84 15.15,15.84c0,0 -9.65,-10.92 -12.69,-15.79c-3.04,-4.87 -2.41,-11.58 -1.92,-16.19c0.49,-4.61 5.5,-17.92 5.5,-17.92c0,0 6.04,-1.13 15.95,8.52z" id="Path 1" fill="#cc6a44" stroke="none" stroke-width="1"/><path d="M107.24186,145.02148c0,0 -6.61,-4.93 -11.54,1.69c-4.93,6.62 -4.43,13 -1.3,16.3c3.39819,3.91937 6.43709,8.13635 9.08,12.6c2.36,3.84 6,0.11 5.61,-3.34c-0.39,-3.45 -5,-7.5 -5.31,-10.26c-0.31,-2.76 3.59,-3.33 4.94,-7.74c1.35,-4.41 -1.48,-9.25 -1.48,-9.25z" id="Path 1" fill="#cc6a44" stroke="none" stroke-width="1"/><path d="M212.93186,112.40148c-2.23,9.93 -2.49,16 -3.68,23.78v0c0,0 0.16,15.15 -5.4,22.45c-5.56,7.3 -26.66,8.42 -26.66,8.42c0,0 16.11,-3 20.68,-10.69c0,0 -12.9,2.66 -20.77,-1.18c-0.31822,-0.13875 -0.57937,-0.38224 -0.74,-0.69c-6.93,-0.79 -12.3,-2.49 -12.4,-4.82c-0.29,-6.58 -12.5,-38.66 -12.5,-38.66c18.83,-23.44 61.47,1.39 61.47,1.39z" id="Path 1" fill="#ed9469" stroke="none" stroke-width="1"/><path d="M207.31186,104.50148c4.45,1 7.8,5.35 7.88,10.64c0,2.49 -0.69,4.38 -3.15,3.92c-5.11,-1 -20.72,-9.2 -36.46,-11.45c-6.17875,-0.83908 -12.46775,0.1627 -18.08,2.88l-11,5.2c0,0 11.68,-14.1 18.63,-16.87c5.35,-2.11 30.55,3.09 42.18,5.68z" id="Path 1" fill="#333333" stroke="none" stroke-width="1"/><path d="M207.08186,147.22148c0,0 -0.3,-19 -21.81,-22.7c-21.51,-3.7 -23.34,13.31 -23.34,13.31c-1.90234,-5.6838 -0.18875,-11.95381 4.34,-15.88c7.8,-6.88 21.74,-4.49 31.81,0.95c10.07,5.44 11.42,16.19 9,24.32z" id="Path 1" fill="#1e0d0b" stroke="none" stroke-width="1"/><path d="M206.93186,148.65148c0.17,-0.32 5.41,-16.41 -13.33,-23.42c-18.74,-7.01 -30.44,4.78 -31.49,11c-1.05,6.22 0,14.73 10.27,16.7c7.83124,1.48185 15.82598,1.90563 23.77,1.26c0,0 7.67,0.5 10.78,-5.54z" id="Path 1" fill="#eadfd1" stroke="none" stroke-width="1"/><ellipse cx="-202.42417" cy="125.69047" transform="rotate(-175) scale(1,-1)" rx="13.99" ry="12.73" id="Shape 1" fill="url(#color-1)" stroke="#36344a" stroke-width="0.5"/><ellipse cx="-202.42417" cy="125.69047" transform="rotate(-175) scale(1,-1)" rx="9.27" ry="8.44" id="Shape 1" fill="#0e1221" stroke="none" stroke-width="1"/><ellipse cx="-208.95071" cy="120.50599" transform="rotate(-175) scale(1,-1)" rx="2.72" ry="2.47" id="Shape 1" fill="#ffffff" stroke="none" stroke-width="1"/><path d="M200.18186,153.74148c0,0 -34.47,4.66 -37.65,-8.8l-0.66,-3.5c0,0 -3.27,11.43 10.83,13.34c14.1,1.91 16.65,0.56 27.48,-1.04z" id="Path 1" fill="#e88a67" stroke="none" stroke-width="1"/><path d="M161.87186,141.44148c0,0 2.36,9.38 14,12c-0.02,-0.02 -13.64,-0.36 -14,-12z" id="Path 1" fill="#edbfa9" stroke="none" stroke-width="1"/><path d="M240.76186,110.10148c0.31,9.36 -2.17,22.12 -2.39,29.35v0c0,0 -2.43,13.74 1,21.22c3.43,7.48 20.56,11.72 20.56,11.72c0,0 -12.72,-5.18 -15.28,-12.87c0,0 10.15,4.39 17.16,2.09c0.29073,-0.07817 0.54309,-0.25945 0.71,-0.51c5.8,0.33 13.11,-4.63 13.54,-6.73c1.24,-5.94 3.74,-34.78 3.74,-34.78c-11.87,-24.18 -39.04,-9.49 -39.04,-9.49z" id="Path 1" fill="#ed9469" stroke="none" stroke-width="1"/><path d="M237.58186,150.11148c0,0 3,-16.61 20.7,-16.67c17.7,-0.06 16.65,15.1 16.65,15.1c0,0 4.08,-7.37 -1.11,-14.54c-5.19,-7.17 -16.64,-7.14 -25.45,-3.87c-8.81,3.27 -11.52,12.5 -10.79,19.98z" id="Path 1" fill="#1e0d0b" stroke="none" stroke-width="1"/><path d="M237.47186,151.34148c-0.09,-0.3 -1.89,-15.16 14.06,-18.54c15.95,-3.38 23.53,8.68 23.44,14.29c-0.09,5.61 -2.13,12.9 -10.64,13.11c-6.45047,0.13901 -12.88623,-0.67304 -19.1,-2.41c0,0 -6.16,-0.66 -7.76,-6.45z" id="Path 1" fill="#eadfd1" stroke="none" stroke-width="1"/><circle cx="-254.95186" cy="150.11148" transform="rotate(-180) scale(1,-1)" r="11.31" id="Shape 1" fill="url(#color-2)" stroke="#36344a" stroke-width="0.5"/><circle cx="-254.95186" cy="150.11148" transform="rotate(-180) scale(1,-1)" r="7.5" id="Shape 1" fill="#0e1221" stroke="none" stroke-width="1"/><circle cx="-260.54186" cy="145.28148" transform="rotate(-180) scale(1,-1)" r="2.2" id="Shape 1" fill="#ffffff" stroke="none" stroke-width="1"/><path d="M174.21186,208.34148c-0.16,-0.16 2.67,-5.9 8,-15.23c7.08,-12.53 31.18,-11.36 31.18,-11.36c0,0 31.21,4.81 38,9.13c8.44,5.38 6.65,21.39 6.65,21.39l9.52,-13.38c-0.43,3.27 -2.4,9 -3.7,12.62c-3.84,10.61 -4.44,15 -8.84,22.53l-1.72,3.3c-2.39326,4.59093 -5.15216,8.98178 -8.25,13.13c-7.08,9.46 -3,5.19 -14.13,16.33c-6.24,6.26 -16.7,19.21 -23.51,23.57c-0.81,0.52 0.3,0.92 0,0v0c-4.54,-14.13 -33.62,-26.67 -45.29,-35.83c-13.6738,-10.80665 -25.60631,-23.64977 -35.38,-38.08c-0.84,-12.46 -5,-63 -5,-63c32.99,46.32 51.37,54.57 52.47,54.88z" id="Path 1" fill="#333333" stroke="none" stroke-width="1"/><path d="M273.56186,66.46148c0,0 -48.05,-9.44 -68.86,-1c0,0 -32.37,7.46 -43.54,19.26c0,0 6.32,-17 36.49,-29.61c30.17,-12.61 75.91,11.35 75.91,11.35z" id="Path 1" fill="#ec9369" stroke="none" stroke-width="1"/><path d="M249.73186,203.69148c0,0 -15.37,-16.42 -54,-8.44c0,0 -4.44,9 -4.92,18.66c-0.38,7.82 9.11,15.69 16.74,17.49v0l1.66,-20.63l18.88,3.64l-6.14,18.3l12.1,1c0,0 8.82,-2 10.05,-7.68z" id="Path 1" fill="#f8a574" stroke="none" stroke-width="1"/><path d="M236.17186,202.78148c-0.7748,-0.71988 -1.63052,-1.34741 -2.55,-1.87c-4.36,-2.4 -15.7,-7.69 -25.08,-3.67c-4.37134,1.43009 -9.09554,1.35617 -13.42,-0.21c0,0 28.36,8.92 50.28,9.21c0,0 -6.3,-0.79 -9.23,-3.46z" id="Path 1" fill="#ed9469" stroke="none" stroke-width="1"/><path d="M241.62186,207.52148c0,0 -23.47,9.82 -43.85,-8.18c0,0 15.77,32.18 43.85,8.18z" id="Path 1" fill="#ed9469" stroke="none" stroke-width="1"/><path d="M245.40186,206.24148c0,0 -14.92,5.26 -26.78,3.2c-8.90405,-1.67654 -17.09464,-6.00186 -23.5,-12.41c0,0 33.16,9.75 50.28,9.21z" id="Path 1" fill="#ffffff" stroke="none" stroke-width="1"/><path d="M231.70186,-11.19852c0,0 12.89,-14 -0.25,-25.66l-3.85,-2.8z" id="Path 1" fill="#1b1f23" stroke="none" stroke-width="1"/><path d="M231.70186,-11.19852c0,0 16.35,-20.93 31.15,-10.6l5.28,4.14z" id="Path 1" fill="#1b1f23" stroke="none" stroke-width="1"/><path d="M264.35186,64.06148l9.21,2.4c15.18,24.41 10.29,46.15 10.29,46.15c43.7,-91.27 -8.09,-99.13 -8.09,-99.13c-4.53,-21.53 -53.91,-34.71 -53.91,-34.71c-129.71,-36 -145.56,83.26 -145.56,83.26l12.72,60.75c9.76,-3.28 19.78,5.59 19.78,5.59c11.63,9.52 13,25.89 13,25.89l0.76,-71.37c7.38,-11.4 19.63,-16.55 19.63,-16.55c0,0 15.75,-9.6 42.18,-13.88c0,0 -17.49,6.63 -35.61,32.2c0,0 46.32,-40 115.6,-20.6z" id="Path 1" fill="#333333" stroke="none" stroke-width="1"/><path d="M184.36186,52.46148l32.79,-14.3c0,0 -85.78,1.66 -94.58,44.73c0,0 11.01,-21.17 61.79,-30.43z" id="Path 1" fill="#1b1f23" stroke="none" stroke-width="1"/><path d="M203.12186,60.56148c0,0 34.33,-11.46 75.21,-4.3c0,0 10.74,10.13 5.42,37.06c0,0 -1.68,-10.37 -10.19,-26.86c0,0 -35.26,-12.94 -70.44,-5.9z" id="Path 1" fill="#1b1f23" stroke="none" stroke-width="1"/><path d="M261.46186,54.25148c0,0 22.2,6.29 15.15,-22.61c0,0 12.42,25.9 7.76,43.06c0,0 -6.16,-12.14 -22.91,-20.45z" id="Path 1" fill="#1b1f23" stroke="none" stroke-width="1"/><path d="M122.57186,82.89148c0,0 -10,8.73 -32.91,6.73c0,0 15.71,8.72 32.8,3.67z" id="Path 1" fill="#1b1f23" stroke="none" stroke-width="1"/><path d="M122.36186,102.34148c0,0 -20.94,8.94 -32.16,-1.26c0,0 5.28,11.26 32,13.39z" id="Path 1" fill="#1b1f23" stroke="none" stroke-width="1"/><path d="M147.93186,53.66148c0,0 -34.92,15.65 -64.15,-0.67c0,0 21.68,18.44 48.92,18.17z" id="Path 1" fill="#1b1f23" stroke="none" stroke-width="1"/><path d="M207.03186,148.40148c0,0 -0.69,8.74 -27,5.79c0,0 7.33,4.84 20.53,1.53c0,0 6.08,-1.88 7.2,-9.88z" id="Path 1" fill="#e88a67" stroke="none" stroke-width="1"/><path d="M266.27186,159.90148c0,0 -14.38,2.67 -26,-4.24c0.01,0 11.2,10.86 26,4.24z" id="Path 1" fill="#ed9469" stroke="none" stroke-width="1"/><path d="M466.68186,338.87148l-167.96,-75.64l-37.89,89.81l-70.09,161.34l165.9,31.59z" id="Path 1" fill="#891f1f" stroke="none" stroke-width="1"/><path d="M309.50186,311.75148l-23.31,47.98l114.06,47.49l24.69,-47.11z" id="Path 1" fill="#721717" stroke="none" stroke-width="1"/><path d="M466.68186,338.87148l55.11,-40.9l-127.17,235.91l-37.98,12.09z" id="Path 1" fill="#721717" stroke="none" stroke-width="1"/><path d="M510.52186,306.34148l5.3,-16.15c0,0 -33.61,7.55 -49.14,48.69z" id="Path 1" fill="#d7d7d5" stroke="none" stroke-width="1"/><path d="M466.68186,338.87148c0,0 -95.46,-49.64 -157,-85.52l-4.92,12.61z" id="Path 1" fill="#d7d7d5" stroke="none" stroke-width="1"/><path d="M5.28186,512.03148l-2.07,4.52l-0.41,2.84c0,0 38.26,-3.66 76.24,-19.13c37.98,-15.47 108.33,-53.46 108.33,-53.46c0,0 13.22,-20 20.54,-38c0,0 -0.29,-12.66 17.16,-21.66c11.84146,-6.32219 23.20506,-13.50131 34,-21.48c0,0 12.32,-17.18 18.91,-14.64c10,3.84 6.65,15 2.32,22.16c-4.33,7.16 -13.19,14.56 -13.19,14.56c0,0 -10.54,9.73 -9.84,14.55c0,0.17 5.48,-2.9 5.52,-2.73l4.46,-1.73c3.47057,-1.41751 6.84447,-3.06103 10.1,-4.92c4.43,-2.64 27.39,-18.49 43.22,-27c7.71,-4.15 13.66,-7.56 15.82,-8.75c1.53,-0.85 3.41,0.68 4.76,1.8c2,1.62 4.41,4.38 4.6,8.17c0.05539,2.14342 -0.98487,4.16741 -2.76,5.37c-5.84,4.12 -21.56,15.33 -25.66,19.77c-5.06,5.49 -16.88,15.83 -16.88,15.83c0,0 10.55,-3.37 15,-5.91c4.45,-2.54 8.65,-7.17 15.19,-9.7c6.54,-2.53 7.35,-8.92 14.94,-8.5c7.59,0.42 12.05,12.39 0.89,17.57c-5.26,2.44 -13.09,11.39 -14.14,12.45c-1.05,1.06 8.65,-2.32 5.69,7.39c-2.96,9.71 -25.74,29.33 -25.74,29.33c-0.70124,8.12023 -4.47456,15.66687 -10.55,21.1c-10.13,8.86 -37.52,18.69 -47.22,22.49c-9.7,3.8 -24.32,3.37 -29.17,5.06c-4.85,1.69 -177.25,100.34 -177.25,100.34c0,0 -65.83,34.18 -79.76,36.71c-13.93,2.53 -34.19,10.13 -43.47,9.71c-9.28,-0.42 -19.84,-28.7 -27,-43.47c-7.16,-14.77 14.27,-118.2 14.27,-118.2c0,0 54.49,-3.24 93.15,27.56z" id="Path 1" fill="#f8a574" stroke="none" stroke-width="1"/><path d="M282.93186,358.43148c0,0 -6.54,15.36 -16.11,20.28c-9.57,4.92 -8.3,8.3 -16.74,14.49c-8.44,6.19 -24.76,20.8 -24.76,20.8c0,0 12.87,-6.66 19.2,-7.37c6.33,-0.71 12.77,-4.29 12.77,-4.29c0,0 -1.55,-5.16 9.17,-13.62c0,-0.04 21.36,-16.11 16.47,-30.29z" id="Path 1" fill="#ed9469" stroke="none" stroke-width="1"/><path d="M332.34186,414.02148l-13.72,10.13c0,0 -4,3.16 -11.18,8.86c-3.99443,3.07173 -7.533,6.69447 -10.51,10.76c0,0 9.7,-8.23 16.67,-9.7c6.97,-1.47 10.33,-10.13 14.73,-12.66c4.4,-2.53 3.32,-3.67 9.68,-5.53c-1.53607,-1.40398 -3.60077,-2.08129 -5.67,-1.86z" id="Path 1" fill="#ed9469" stroke="none" stroke-width="1"/><path d="M348.85186,386.66148c0,0 -15.67,7.1 -20.52,11.11c-10.4375,8.25462 -21.93711,15.06895 -34.19,20.26c0,0 -7,0 6.33,-9.92c5.87009,-1.87985 11.55958,-4.28283 17,-7.18c10.22,-5.27 26.21,-24.24 31.38,-14.27z" id="Path 1" fill="#ed9469" stroke="none" stroke-width="1"/><path d="M312.29186,450.74148l-16.18,12.94l14.68,-5.66c0.92043,-2.32071 1.42808,-4.78446 1.5,-7.28z" id="Path 1" fill="#ed9469" stroke="none" stroke-width="1"/><path d="M3.21186,516.55148c0,0 -44.59,-0.54 -68.22,27.6c0,0 -7.32,5.91 9,-2.82c16.32,-8.73 26.44,-16.37 58.81,-21.94z" id="Path 1" fill="#ed9469" stroke="none" stroke-width="1"/><path d="M264.84186,359.87148l4.62,3.81l8.47,-8.68c-1.71895,-0.88596 -3.32402,-1.97727 -4.78,-3.25c-3.02729,2.43019 -5.81045,5.14972 -8.31,8.12z" id="Path 1" fill="#ebbaa3" stroke="none" stroke-width="1"/><path d="M331.35186,368.14148l5.48,7.17l8.58,-5.89l-5.95,-7.5z" id="Path 1" fill="#ebbaa3" stroke="none" stroke-width="1"/><path d="M342.89186,392.51148l3.95,7.15l4.41,-5.32l-3.84,-5.86z" id="Path 1" fill="#ebbaa3" stroke="none" stroke-width="1"/><path d="M478.42186,370.72148l23.72,51.33l-63.88,34.27z" id="Path 1" fill="#cb744e" stroke="none" stroke-width="1"/><path d="M505.75186,320.34148c0,0 4.18,10.47 13.7,26.87c0,0 3.06,3.5 1.05,12.56c-2.01,9.06 0.5,27.42 0.5,27.42c0,0 10.47,7 5.67,15.92c-2.10605,3.76689 -2.7538,8.17658 -1.82,12.39c0.68681,3.30285 -0.19586,6.73752 -2.39,9.3c-1.82659,2.23879 -3.95722,4.21121 -6.33,5.86c-6.36,4.28 -22.42,27.35 -36.38,35.23c0,0 -53.37,106.38 -73.74,127.44l-34.43,-52.52c0,0 42.56,-39.21 61.49,-76.94c0.58,-1.14 1.16,-2.27 1.78,-3.39c1.46,-2.61 4.54,-8.23 7.8,-14.91v0l5.11,-9.5l-16.83,-4.73c-2.57,-0.76 -5.49,-3.28 -5.76,-5.94c-0.33,-3.22 -0.53,-8.09 4.12,-10.08c2.18,-0.93 6.48,0.11 8.79,0.64c5.46,1.25 18.45,4.08 25.14,4.21c6.69511,0.28019 13.37093,0.91106 20,1.89l-42.63,-21.53c0,0 -13,-10.83 7,-14.91l6.2,-0.22c0,0 -13.51,-21.06 8,-16.76l36.26,3.87c-0.44892,-4.98711 -0.22695,-10.0119 0.66,-14.94c0.90459,-4.1699 0.1896,-8.52776 -2,-12.19c0,0 -14.26,-22.55 9.04,-25.04z" id="Path 1" fill="#f8a574" stroke="none" stroke-width="1"/><path d="M447.76186,436.07148c5.93347,1.64002 12.02425,2.64565 18.17,3c0,0 -17.46,7.49 -23.28,6.49z" id="Path 1" fill="#ed9469" stroke="none" stroke-width="1"/><path d="M450.60186,377.53148c0,0 3.5,9.91 18.77,10c21.71,0.07 34.34,12.1 35.7,12.43c2.62015,0.22658 5.25091,0.30671 7.88,0.24c0,0 -2.43,4.64 -18.63,0.51c-16.2,-4.13 -44.16,-10.69 -46.74,-15.07l6.2,-0.22c0,0 -3.5,-5.27 -3.18,-7.89z" id="Path 1" fill="#ed9469" stroke="none" stroke-width="1"/><path d="M505.75186,320.34148c0,0 -8.14,13.13 1.51,25.8l3.58,0.3c0,0 -9.39,-1.74 -6.49,8.69c2.9,10.43 11.78,5.09 11.78,5.09c0,0 -13.5,1.57 -12.09,11.38l9.4,9.93l-15.42,-9c0,0 -0.88,-14.43 -1.34,-27.13c0,-0.06 -14.75,-22.06 9.07,-25.06z" id="Path 1" fill="#ed9469" stroke="none" stroke-width="1"/><path d="M435.87186,462.16148c0,0 3.37,4.62 22.47,2.77c0,0 -14.63,8.76 -25.45,4.54z" id="Path 1" fill="#ed9469" stroke="none" stroke-width="1"/><path d="M469.75186,390.15148c0,0 15.81,2.07 26.86,9c0,-0.03 -17.28,-3.75 -26.86,-9z" id="Path 1" fill="#cb744e" stroke="none" stroke-width="1"/><path d="M500.69186,431.25148c0,0 0,8.08 -11.41,9.2c0,0 16.38,2.57 11.41,-9.2z" id="Path 1" fill="#ed9469" stroke="none" stroke-width="1"/><path d="M523.36186,423.55148c0,0 -5.22,5.51 -12.34,5.07l5.11,2c0,0 5.8,-3.85 7.23,-7.07z" id="Path 1" fill="#ed9469" stroke="none" stroke-width="1"/><path d="M509.91186,329.37148l-1.11,0.86l-4.54,-6.77l2.17,-1.57z" id="Path 1" fill="#ebbaa3" stroke="none" stroke-width="1"/><path d="M466.72186,371.08148l-0.46,8.56l-12.62,-0.02l0.85,-10.14z" id="Path 1" fill="#ebbaa3" stroke="none" stroke-width="1"/><path d="M430.43186,418.03148c0,0 -1.21,6.67 -2.2,8.89l8.7,-0.05l2.29,-6.25z" id="Path 1" fill="#ebbaa3" stroke="none" stroke-width="1"/><path d="M445.13186,440.18148l-44.99,92.01l-37.98,12.09l47.75,-89.88z" id="Path 1" fill="#721717" stroke="none" stroke-width="1"/><path d="M240.30186,113.91148c1.37,-4.66 4.71,-7.76 8,-7.64c8.5,0.32 26.83,1.37 29.9,4.43c1.62,1.62 3.31,5.07 4.74,8.6l-0.77,5.39l-1.7,-2c-2.89362,-3.53657 -6.98668,-5.88563 -11.5,-6.6c-11.2,-1.54 -23.8,2.25 -27.5,2c-1.8,-0.16 -1.82,-1.99 -1.17,-4.18z" id="Path 1" fill="#333333" stroke="none" stroke-width="1"/><path d="M161.87186,141.44148c0,0 -5.83,19.94 35.82,14.53c3.36295,-0.36692 6.40875,-2.15364 8.37,-4.91c0.98835,-1.42079 1.57246,-3.08325 1.69,-4.81c-0.74525,4.18551 -4.23931,7.32934 -8.48,7.63c-7.6,0.9 -24.38,1.58 -32.59,-3.37c0,0 -4.99,-1.97 -4.81,-9.07z" id="Path 1" fill="#ed9469" stroke="none" stroke-width="1"/><path d="M272.83186,155.66148c0,0 -2.35,4.83 -10.94,4.58c-8.59,-0.25 -23.31,-1.78 -24.31,-8.49c0,0 4.15,10.77 19.36,10.52c15.21,-0.25 16.92,-4.14 18.77,-7.24z" id="Path 1" fill="#ed9469" stroke="none" stroke-width="1"/><path d="M220.42186,130.72148c0,0 5.64,15.5 -13.68,29.73c-19.32,14.23 -49.53,4.13 -53,-8c0,0 -9.38,-31.27 2.28,-31.85c11.66,-0.58 44.25,-6.11 64.4,10.12z" id="Path 1" fill="#c7c6c5" stroke="none" stroke-width="1" opacity="0.2"/><path d="M293.75186,131.65148c0,0 -21.62,-9.38 -52,-3.21c0,0 -12.37,21.93 -2.18,35.43c10.19,13.5 43.11,6.11 48.09,-9c4.98,-15.11 7.48,-20.1 6.09,-23.22z" id="Path 1" fill="#c7c6c5" stroke="none" stroke-width="1" opacity="0.2"/><path d="M234.49186,152.55148c0.57969,-7.65241 1.97084,-15.22156 4.15,-22.58c0,0 0.61,-3.14 6.88,-3.4c7.44,-0.31 28.2,-2.28 41.17,0.73l9.59,2.04c0,0 -2.46,28.55 -18.5,37.49c0,0 -11.76,9.63 -32,2.7c-6.91961,-2.27081 -11.53211,-8.80959 -11.35,-16.09c0.01,-0.29 0.03,-0.59 0.06,-0.89zM241.49186,130.41148c-3.19,8.5 -12.34,33.39 8.69,38c26.29,5.73 36.64,-10.09 41.17,-26.43l1.25,-5.43c0.56599,-2.41873 -0.82313,-4.86602 -3.19,-5.62c-5.84,-1.85 -18.71,-4.3 -43.49,-2.41c-1.64,0.1 -3.91,0.39 -4.47,1.89z" id="CompoundPath 1" fill="#211e1f" stroke="none" stroke-width="1"/><path d="M222.11186,131.41148c0,0 10.72,-6 17,0.78l-0.33,1.75c0,0 -6.55,-5.5 -16,-0.5z" id="Path 1" fill="#211e1f" stroke="none" stroke-width="1"/><path d="M223.31186,128.34148c2.74,26.45 -13.7,36.77 -29.32,40c-14.14,2.95 -37.38,-0.2 -42.67,-14.66c-5.29,-14.46 -3.13,-35.21 -3.13,-35.21c22.99,-2.72 64.98,-1.13 75.12,9.87zM220.78186,131.65148c-2.45,-10 -53.38,-14.14 -66.29,-10.74c-5.21,1.37 -4.29,19.91 -0.12,32.27c4.56,13.52 23.56,14.45 36.56,13.28c22.38,-2.02 32.94,-22.07 29.85,-34.77z" id="CompoundPath 1" fill="#211e1f" stroke="none" stroke-width="1"/><path d="M148.40186,127.46148l-40.19,0.31l-3.66,-2.4l45.21,-2.16z" id="Path 1" fill="#211e1f" stroke="none" stroke-width="1"/><path d="M202.38186,149.53148c0,0 5.39,-9.82 3.6,-19.48l10.62,1.91c0,0 -1,15.44 -3.58,18.43z" id="Path 1" fill="#ffffff" stroke="none" stroke-width="1" opacity="0.3"/><path d="M264.51186,158.62148c0,0 7.32,-11.9 5.42,-23.28l13.58,1.83c0,0 -2,18.39 -5.36,22.06z" id="Path 1" fill="#ffffff" stroke="none" stroke-width="1" opacity="0.3"/><path d="M326.21186,566.55148c0,0 -5.76,14.68 4.64,45.09l-16.21,-27.61c0,0 1.42,-10.79 2.81,-19.15z" id="Path 1" fill="#ed9469" stroke="none" stroke-width="1"/><path d="M306.91186,260.48148l118.03,59.59l-120.17,-54.11z" id="Path 1" fill="#231f20" stroke="none" stroke-width="1" opacity="0.1"/><path d="M512.34186,300.80148c0,0 -34.49,13.73 -45,37.6l43.18,-32.06z" id="Path 1" fill="#231f20" stroke="none" stroke-width="1" opacity="0.1"/><path d="M447.58186,385.60148c0,0 -5.35,-3.07 -7.17,-0.69c-1.82,2.38 -6.31,7.21 -6.17,12c0.14,4.79 8.22,7.45 14.13,9.12c5.91,1.67 -0.79,-20.43 -0.79,-20.43z" id="Path 1" fill="#f8a574" stroke="none" stroke-width="1"/><path d="M455.08186,392.55148l-4.83,8.48l-12.17,-4.42l5.38,-9.29z" id="Path 1" fill="#ebbaa3" stroke="none" stroke-width="1"/><path d="M435.00186,394.64148c0,0 13.2,9.7 19.84,11.46c6.64,1.76 25.52,12.31 31.21,16.85c0,0 -36.76,2.78 -49,-6.84l21.25,2.23l22.48,3.36c0,0 -12.66,-8 -24.66,-12.7c-12,-4.7 -24.76,-7.01 -21.12,-14.36z" id="Path 1" fill="#ed9469" stroke="none" stroke-width="1"/><path d="M230.38186,166.71148l6.9,1.47c1.88132,2.94071 2.38877,6.55491 1.39,9.9c0,0 -11.48,-2.76 -14.45,-1.1c-2.97,1.66 -6.41,0.17 -10,-2.51c-0.64511,-0.48104 -1.06992,-1.2011 -1.17898,-1.99839c-0.10906,-0.7973 0.10676,-1.60498 0.59898,-2.24161c0,0 -6.19,7 -4,10.22c2.19,3.22 12.34,2.84 14.19,4.65l1.86,1.81c0,0 1.14,-1.29 4,-1.44c1.61,-0.08 3.75,-0.29 5.34,-0.45c1.43942,-0.14134 2.69569,-1.03596 3.3,-2.35c1.41,-3.11 3.25,-9.11 -0.28,-14.32l-0.44,-0.61z" id="Path 1" fill="#ec9369" stroke="none" stroke-width="1"/><path d="M226.50186,183.15148c0.26,-0.22 -2.16,-7.54 -9.81,-2.82c0,0 -2.55,1.85 -4,1.7c0,0 1.88,0.26 6.5,-2c-0.04,0.03 4.2,5.68 7.31,3.12z" id="Path 1" fill="#de6c40" stroke="none" stroke-width="1"/><path d="M236.29186,181.63148c0,0 -3.54,4 -4.54,0.54c-0.08,-0.29 2.92,-6.41 5.74,0.5z" id="Path 1" fill="#de6c40" stroke="none" stroke-width="1"/></g></g></g></g></g></svg>