<svg viewBox="0 0 528.12 529.82"><style>
  .cls-1{fill:#333} .cls-2{fill:#299e94} .cls-3{fill:#333} .clc-1{fill:#299e94} 
   .cls-2{fill: var(--themeC)}
   .clc-1{fill: var(--themeC)}
  .drK .cls-1 {fill:#FFF}
  .drK .cls-3 {fill:#FFF}
    .drK .cls-2 {fill:#299e94}
  .drK .clc-1 {fill:#299e94}
</style><title>siwane</title>
<g transform="matrix(1.124055, 0.174593, -0.136035, 0.875801, 182.909973, -338.189696)">
    <g transform="matrix(0.635794, 0, 0, 0.825583, 63.823586, 414.053925)">
      <path class='cls-1' d="M315.6,496.009l-141.321-78.515c5.982-13.227,9.182-27.307,9.182-42.027c0-16.009-3.797-31.113-10.377-44.621 l142.729-84.574c4.062-2.398,5.393-7.646,2.995-11.691c-2.389-4.053-7.62-5.393-11.691-2.995l-142.72,84.574 c-17.024-23.859-43.964-40.107-74.795-42.667V102.4c0-4.719-3.814-8.533-8.533-8.533s-8.533,3.814-8.533,8.533v273.067 c0,2.97,1.544,5.709,4.053,7.262c0.009,0.009,0.009,0.009,0.017,0.009c0,0.008,0.009,0.008,0.017,0.017l0.017,0.009 c0,0,0.009,0,0.009,0.009c0.009,0,0.017,0.008,0.017,0.008c0.009,0,0.009,0.009,0.017,0.009c0.009,0,0.009,0.009,0.017,0.009 c0.009,0.008,0.009,0.008,0.017,0.008c0,0.009,0.008,0.009,0.008,0.009c0.009,0,0.009,0,0.009,0c0,0.009,0.009,0.009,0.009,0.009 s0.009,0,0.009,0.009h0.009c0,0,0,0.008,0.008,0.008h0.009c0,0.009,0,0.009,0,0.009c0.009,0,0.009,0,0.017,0.009 c0.009,0,0.009,0,0.017,0.009c0.009,0,0.009,0,0.017,0.008c0.009,0,0.009,0.009,0.009,0.009c0.009,0,0.009,0,0.009,0 c0.009,0,0.009,0.009,0.009,0.009c0.008,0,0.008,0,0.008,0l0.009,0.009h0.009l0.009,0.008c0.009,0,0.009,0.009,0.017,0.009 c0,0,0.009,0.009,0.017,0.009c0,0,0.009,0.008,0.017,0.008l230.4,128c1.289,0.725,2.714,1.067,4.113,1.067 c3.004,0,5.905-1.587,7.467-4.395c0.734-1.306,1.075-2.731,1.075-4.13C319.995,500.471,318.407,497.57,315.6,496.009z M89.595,290.569c24.602,2.458,46.089,15.454,60.049,34.338l-60.049,35.584V290.569z M159.321,409.182l-61.116-33.954 l60.169-35.652c5.094,10.923,8.021,23.057,8.021,35.891C166.395,387.251,163.929,398.541,159.321,409.182z"/>
    </g>
  </g>
  <g transform="matrix(0.629236, 0.097735, -0.102361, 0.659008, 307.484466, 391.92343)">
    <g>
      <path class='cls-2' d="M200.528,85.333h-64.734l70.767-70.767c2.441-2.441,3.174-6.11,1.852-9.301C207.099,2.074,203.975,0,200.528,0h-85.333 c-4.719,0-8.533,3.814-8.533,8.533s3.814,8.533,8.533,8.533h64.734l-70.767,70.767c-2.441,2.441-3.174,6.11-1.852,9.301 c1.314,3.191,4.437,5.265,7.885,5.265h85.333c4.719,0,8.533-3.814,8.533-8.533C209.061,89.148,205.247,85.333,200.528,85.333z"/>
    </g>
  </g>
  <g transform="matrix(0.756508, 0.117504, -0.101958, 0.656411, 164.762756, 87.159637)">
    <g>
      <path class='cls-2' d="M411.361,113.434c-3.336-3.337-8.73-3.337-12.066,0l-36.634,36.634l-36.634-36.634c-3.337-3.337-8.73-3.337-12.066,0 c-3.336,3.337-3.336,8.73,0,12.066l40.166,40.166v47.667c0,4.719,3.814,8.533,8.533,8.533s8.533-3.814,8.533-8.533v-47.667 l40.166-40.166C414.698,122.163,414.698,116.77,411.361,113.434z"/>
    </g>
  </g>
  <g transform="matrix(0.631153, 0.098033, -0.098544, 0.634428, 52.00288, -240.884933)">
    <g>
      <path class='cls-2' d="M400.328,460.8l36.634-36.634c3.336-3.337,3.336-8.73,0-12.066c-3.337-3.337-8.73-3.337-12.066,0l-36.634,36.634 L351.628,412.1c-3.336-3.337-8.73-3.337-12.066,0c-3.337,3.337-3.337,8.73,0,12.066l36.634,36.634l-36.634,36.634 c-3.337,3.337-3.337,8.73,0,12.066c1.664,1.664,3.849,2.5,6.033,2.5c2.185,0,4.369-0.836,6.033-2.5l36.634-36.634l36.634,36.634 c1.664,1.664,3.849,2.5,6.033,2.5c2.185,0,4.369-0.836,6.033-2.5c3.336-3.336,3.336-8.73,0-12.066L400.328,460.8z"/>
    </g>
  </g>
  <path class='cls-3' d="M 198.963 218.82 C 209.934 263.683 175.865 323.475 102.249 313.862 L 101.173 313.71 C 102.743 385.232 183.382 428.283 246.324 391.201 C 309.266 354.118 307.304 264.714 242.793 230.273 C 229.341 223.091 214.307 219.163 198.963 218.82 Z"/>
  <circle class='clc-1' cx="147.46" cy="147.46" r="102.22" transform="matrix(0.655821, 0, 0, 0.637439, 22.022018, 140.816559)"/>
  <path class='cls-2' d="M 300.09 214.524 C 286.781 214.511 273.779 218.413 262.794 225.717 C 274.186 234.061 323.818 275.393 300.549 346.964 C 337.361 346.716 367.129 317.171 367.129 280.748 C 367.102 244.171 337.085 214.524 300.09 214.524 Z M 220.132 450.612 C 227.686 439.962 231.751 427.341 231.793 414.406 C 218.257 418.791 155.062 435.091 107.64 375.873 C 86.968 405.482 95.126 446.067 126.002 466.727 C 156.99 487.45 199.134 480.234 220.132 450.612 Z"/>
  <path class='cls-3' d="M 339.964 351.433 C 325.396 398.735 287.309 435.734 238.633 449.866 C 232.532 460.85 223.892 470.308 213.391 477.493 C 295.04 469.443 359.967 406.412 368.375 327.089 C 360.968 337.229 351.243 345.562 339.964 351.433 Z M 161.057 167.137 C 209.096 156.161 259.62 168.727 296.332 200.78 C 297.933 200.691 299.54 200.634 301.159 200.634 C 312.314 200.631 323.352 202.835 333.602 207.111 C 284.429 144.653 197.417 123.444 123.74 155.956 C 136.924 156.707 149.726 160.543 161.057 167.137 Z M 82.462 412.13 C 82.462 410.179 82.561 408.248 82.705 406.336 C 50.941 371.291 38.274 323.625 48.603 278.013 C 41.644 267.097 37.503 254.708 36.535 241.902 C 4.808 312.495 26.237 395.01 88.634 442.511 C 84.545 432.875 82.448 422.552 82.462 412.13 Z"/>
</svg>